<svg width="24" height="24" viewBox="0 0 24 24" fill="none" xmlns="http://www.w3.org/2000/svg">
<g clip-path="url(#clip0_25_50)">
<path d="M12 0.75C5.78681 0.75 0.75 5.78681 0.75 12C0.75 18.2132 5.78681 23.25 12 23.25C18.2132 23.25 23.25 18.2132 23.25 12C23.25 5.78681 18.2132 0.75 12 0.75ZM18.8943 18.8943C17.1848 20.5987 14.9019 21.6056 12.4906 21.7188C10.0792 21.832 7.7121 21.0434 5.85044 19.5066C3.98877 17.9698 2.76594 15.795 2.4202 13.4059C2.07446 11.0168 2.63058 8.5845 3.98021 6.58302C5.32984 4.58153 7.37629 3.15421 9.72081 2.57917C12.0653 2.00412 14.54 2.32255 16.6625 3.4724C18.7851 4.62226 20.4035 6.52117 21.2025 8.79912C22.0014 11.0771 21.9237 13.5709 20.9844 15.7947C20.4948 16.9534 19.785 18.0061 18.8943 18.8943Z" fill="#545454"/>
<path d="M6.67114 11.298L7.73183 12.3586L11.2499 8.84057V17.6248H12.7499V8.84057L16.268 12.3586L17.3287 11.298L11.9999 5.96924L6.67114 11.298V11.298Z" fill="#545454"/>
</g>
<defs>
<clipPath id="clip0_25_50">
<rect width="24" height="24" fill="white"/>
</clipPath>
</defs>
</svg>
